<svg width="1024" height="505" viewBox="0 0 1024 505" fill="none" xmlns="http://www.w3.org/2000/svg">
<path d="M587.156 494.2C580.818 494.196 574.741 491.686 570.262 487.221C565.782 482.756 563.265 476.702 563.265 470.389C563.265 464.077 565.782 458.023 570.262 453.558C574.741 449.093 580.818 446.582 587.156 446.578H942.269C940.483 443.312 937.847 440.586 934.637 438.686C931.428 436.786 927.764 435.781 924.03 435.779H218.159C208.95 435.789 200.122 439.44 193.614 445.93C187.106 452.42 183.451 461.217 183.452 470.389C183.457 479.56 187.114 488.354 193.62 494.842C200.127 501.331 208.952 504.984 218.159 505H924.03C927.763 504.997 931.428 503.993 934.637 502.093C937.846 500.192 940.483 497.466 942.269 494.2L587.156 494.2Z" fill="#524F69"/>
<path d="M942.741 459.699H605.111C604.594 459.697 604.099 459.492 603.734 459.128C603.369 458.763 603.164 458.27 603.164 457.755C603.164 457.24 603.369 456.746 603.734 456.382C604.099 456.018 604.594 455.812 605.111 455.811H942.741C943.257 455.812 943.753 456.018 944.118 456.382C944.483 456.746 944.688 457.24 944.688 457.755C944.688 458.27 944.483 458.763 944.118 459.128C943.753 459.492 943.257 459.697 942.741 459.699Z" fill="#CCCCCC"/>
<path d="M942.741 472.333H605.111C604.593 472.333 604.097 472.128 603.731 471.764C603.365 471.399 603.159 470.905 603.159 470.389C603.159 469.874 603.365 469.379 603.731 469.015C604.097 468.65 604.593 468.446 605.111 468.446H942.741C943.258 468.446 943.755 468.65 944.121 469.015C944.487 469.379 944.692 469.874 944.692 470.389C944.692 470.905 944.487 471.399 944.121 471.764C943.755 472.128 943.258 472.333 942.741 472.333Z" fill="#CCCCCC"/>
<path d="M942.741 484.968H605.111C604.594 484.966 604.099 484.761 603.734 484.397C603.369 484.032 603.164 483.539 603.164 483.024C603.164 482.509 603.369 482.015 603.734 481.651C604.099 481.287 604.594 481.081 605.111 481.08H942.741C943.257 481.081 943.753 481.287 944.118 481.651C944.483 482.015 944.688 482.509 944.688 483.024C944.688 483.539 944.483 484.032 944.118 484.397C943.753 484.761 943.257 484.966 942.741 484.968Z" fill="#CCCCCC"/>
<path d="M495.43 427.14C489.092 427.136 483.015 424.625 478.535 420.16C474.055 415.695 471.539 409.641 471.539 403.329C471.539 397.017 474.055 390.963 478.535 386.498C483.015 382.033 489.092 379.522 495.43 379.518H850.543C848.757 376.252 846.12 373.526 842.911 371.626C839.702 369.726 836.038 368.721 832.304 368.719H126.433C117.224 368.729 108.396 372.38 101.888 378.87C95.3799 385.359 91.7249 394.157 91.7258 403.329C91.7306 412.5 95.3874 421.294 101.894 427.782C108.401 434.271 117.226 437.924 126.433 437.94H832.304C836.038 437.937 839.702 436.933 842.911 435.032C846.12 433.132 848.757 430.406 850.543 427.14L495.43 427.14Z" fill="#FFE035"/>
<path d="M851.014 392.639H513.385C512.868 392.637 512.373 392.432 512.008 392.068C511.643 391.703 511.438 391.209 511.438 390.695C511.438 390.18 511.643 389.686 512.008 389.322C512.373 388.958 512.868 388.752 513.385 388.751H851.014C851.532 388.751 852.029 388.956 852.395 389.32C852.761 389.685 852.966 390.179 852.966 390.695C852.966 391.21 852.761 391.705 852.395 392.069C852.029 392.434 851.532 392.639 851.014 392.639Z" fill="#CCCCCC"/>
<path d="M851.014 405.273H513.385C512.867 405.273 512.371 405.068 512.005 404.704C511.639 404.339 511.433 403.845 511.433 403.329C511.433 402.814 511.639 402.319 512.005 401.955C512.371 401.59 512.867 401.385 513.385 401.385H851.014C851.532 401.385 852.028 401.59 852.394 401.955C852.76 402.319 852.966 402.814 852.966 403.329C852.966 403.845 852.76 404.339 852.394 404.704C852.028 405.068 851.532 405.273 851.014 405.273Z" fill="#CCCCCC"/>
<path d="M851.014 417.907H513.385C512.868 417.906 512.373 417.701 512.008 417.336C511.643 416.972 511.438 416.478 511.438 415.964C511.438 415.449 511.643 414.955 512.008 414.591C512.373 414.226 512.868 414.021 513.385 414.02H851.014C851.271 414.019 851.525 414.069 851.763 414.166C852 414.264 852.216 414.407 852.397 414.587C852.579 414.768 852.723 414.982 852.822 415.219C852.92 415.455 852.971 415.708 852.971 415.964C852.971 416.219 852.92 416.472 852.822 416.709C852.723 416.945 852.579 417.159 852.397 417.34C852.216 417.52 852 417.663 851.763 417.761C851.525 417.858 851.271 417.908 851.014 417.907Z" fill="#CCCCCC"/>
<path d="M403.704 357.843C397.366 357.838 391.289 355.328 386.809 350.863C382.329 346.398 379.813 340.344 379.813 334.031C379.813 327.719 382.329 321.665 386.809 317.2C391.289 312.735 397.366 310.224 403.704 310.22H758.817C757.031 306.955 754.394 304.228 751.185 302.328C747.976 300.428 744.312 299.423 740.578 299.421H34.707C25.4978 299.431 16.6694 303.082 10.1616 309.572C3.65374 316.062 -0.00114581 324.859 2.69453e-07 334.031C0.0046595 343.202 3.6614 351.996 10.168 358.484C16.6746 364.973 25.4996 368.626 34.707 368.642H740.578C744.312 368.639 747.976 367.635 751.185 365.735C754.395 363.834 757.031 361.108 758.817 357.843L403.704 357.843Z" fill="#23203D"/>
<path d="M759.289 323.341H421.659C421.142 323.339 420.647 323.134 420.282 322.77C419.917 322.405 419.712 321.912 419.712 321.397C419.712 320.882 419.917 320.388 420.282 320.024C420.647 319.66 421.142 319.454 421.659 319.453H759.289C759.806 319.453 760.302 319.658 760.668 320.022C761.034 320.387 761.24 320.881 761.24 321.397C761.24 321.912 761.034 322.407 760.668 322.771C760.302 323.136 759.806 323.341 759.289 323.341Z" fill="#CCCCCC"/>
<path d="M759.288 335.975H421.659C421.402 335.975 421.148 335.925 420.912 335.827C420.675 335.73 420.46 335.586 420.278 335.406C420.097 335.225 419.954 335.011 419.855 334.775C419.757 334.539 419.707 334.287 419.707 334.031C419.707 333.776 419.757 333.523 419.855 333.288C419.954 333.052 420.097 332.838 420.278 332.657C420.46 332.477 420.675 332.333 420.912 332.236C421.148 332.138 421.402 332.088 421.659 332.088H759.288C759.545 332.088 759.798 332.138 760.035 332.236C760.272 332.333 760.487 332.477 760.668 332.657C760.85 332.838 760.993 333.052 761.091 333.288C761.19 333.523 761.24 333.776 761.24 334.031C761.24 334.287 761.19 334.539 761.091 334.775C760.993 335.011 760.85 335.225 760.668 335.406C760.487 335.586 760.272 335.73 760.035 335.827C759.798 335.925 759.545 335.975 759.288 335.975Z" fill="#CCCCCC"/>
<path d="M759.288 348.61H421.659C421.141 348.61 420.644 348.405 420.278 348.04C419.912 347.676 419.707 347.182 419.707 346.666C419.707 346.151 419.912 345.656 420.278 345.292C420.644 344.927 421.141 344.722 421.659 344.722H759.288C759.545 344.722 759.798 344.773 760.035 344.87C760.272 344.968 760.487 345.111 760.668 345.292C760.85 345.472 760.993 345.686 761.091 345.922C761.19 346.158 761.24 346.411 761.24 346.666C761.24 346.921 761.19 347.174 761.091 347.41C760.993 347.646 760.85 347.86 760.668 348.04C760.487 348.221 760.272 348.364 760.035 348.462C759.798 348.56 759.545 348.61 759.288 348.61Z" fill="#CCCCCC"/>
<path d="M767.085 210.011C765.233 210.008 763.451 209.304 762.101 208.042C760.75 206.78 759.931 205.054 759.81 203.214L758.727 186.736C758.6 184.812 759.246 182.916 760.523 181.466C761.8 180.016 763.603 179.13 765.535 179.004L895.15 170.55C897.193 170.417 899.242 170.686 901.181 171.341C903.12 171.997 904.91 173.026 906.449 174.371C907.989 175.716 909.247 177.349 910.152 179.178C911.058 181.007 911.593 182.996 911.727 185.031C911.86 187.066 911.59 189.107 910.932 191.038C910.274 192.969 909.24 194.752 907.89 196.285C906.54 197.818 904.9 199.071 903.064 199.973C901.227 200.875 899.23 201.408 897.187 201.541L767.573 209.995C767.41 210.005 767.247 210.01 767.085 210.011Z" fill="#FFD803"/>
<path d="M792.643 212.135C790.755 212.132 788.941 211.401 787.582 210.096C786.223 208.791 785.423 207.013 785.35 205.134L784.426 180.523C784.391 179.569 784.544 178.617 784.877 177.721C785.211 176.826 785.718 176.005 786.371 175.305C787.023 174.605 787.807 174.04 788.679 173.642C789.55 173.244 790.492 173.02 791.45 172.985L898.036 169.017C899.971 168.945 901.855 169.642 903.275 170.954C904.694 172.266 905.532 174.086 905.605 176.013L906.528 200.624C906.564 201.578 906.411 202.53 906.077 203.425C905.744 204.321 905.236 205.142 904.584 205.842C903.932 206.542 903.147 207.107 902.276 207.505C901.404 207.903 900.463 208.126 899.504 208.162L792.919 212.13C792.827 212.133 792.735 212.135 792.643 212.135Z" fill="#272343"/>
<path d="M917.544 439.002H900.965C899.029 439 897.173 438.233 895.804 436.87C894.435 435.506 893.665 433.658 893.663 431.73V294.104C893.665 292.176 894.435 290.328 895.804 288.965C897.173 287.601 899.029 286.834 900.965 286.832H917.544C919.48 286.834 921.336 287.601 922.705 288.965C924.073 290.328 924.843 292.176 924.846 294.104V431.73C924.843 433.658 924.073 435.506 922.705 436.87C921.336 438.233 919.48 439 917.544 439.002Z" fill="#524F69"/>
<path d="M843.954 366.254L829.776 357.695C828.122 356.694 826.934 355.08 826.473 353.207C826.012 351.335 826.315 349.357 827.317 347.707L898.943 230.013C899.948 228.366 901.569 227.183 903.449 226.723C905.329 226.264 907.315 226.566 908.971 227.564L923.15 236.123C924.804 237.125 925.992 238.738 926.453 240.611C926.914 242.484 926.61 244.462 925.609 246.112L853.983 363.805C852.977 365.453 851.357 366.636 849.477 367.095C847.597 367.554 845.611 367.252 843.954 366.254Z" fill="#524F69"/>
<path d="M892.363 143.205C924.003 143.205 949.652 117.659 949.652 86.1468C949.652 54.6346 924.003 29.089 892.363 29.089C860.724 29.089 835.075 54.6346 835.075 86.1468C835.075 117.659 860.724 143.205 892.363 143.205Z" fill="#FFE035"/>
<path d="M861.354 105.628C859.511 105.025 857.819 104.036 856.392 102.728C855.447 101.793 854.718 100.665 854.256 99.4201C853.795 98.1757 853.612 96.846 853.721 95.5239C853.781 94.582 854.059 93.6666 854.533 92.8493C855.007 92.032 855.665 91.335 856.454 90.8126C858.503 89.5038 861.243 89.4999 864.032 90.7244L863.927 68.4498L866.173 68.4391L866.297 94.6252L864.566 93.5408C862.559 92.2853 859.693 91.4017 857.667 92.6961C857.167 93.0381 856.752 93.4905 856.455 94.018C856.159 94.5456 855.989 95.1342 855.958 95.738C855.882 96.7228 856.02 97.7123 856.363 98.6391C856.706 99.566 857.245 100.408 857.944 101.109C860.424 103.469 864.044 104.207 868.171 104.867L867.815 107.076C865.622 106.787 863.46 106.302 861.354 105.628Z" fill="#2F2E41"/>
<path d="M840.768 67.3244L840.474 69.5424L852.47 71.1202L852.764 68.9022L840.768 67.3244Z" fill="#2F2E41"/>
<path d="M878.632 72.3035L878.338 74.5215L890.333 76.0994L890.627 73.8813L878.632 72.3035Z" fill="#2F2E41"/>
<path d="M940.199 331.03H843.596C841.064 331.027 838.637 330.024 836.847 328.241C835.057 326.458 834.05 324.041 834.048 321.52L854.272 167.056C854.288 164.546 855.301 162.145 857.089 160.377C858.877 158.608 861.295 157.617 863.815 157.619H898.098C911.791 157.634 924.92 163.059 934.602 172.703C944.285 182.346 949.732 195.422 949.747 209.06V321.52C949.744 324.041 948.737 326.458 946.947 328.241C945.157 330.024 942.731 331.027 940.199 331.03Z" fill="#272343"/>
<path d="M1023.31 270.164C1023.91 271.436 1024.12 272.853 1023.93 274.244C1023.74 275.635 1023.15 276.94 1022.23 278.004L1011.39 290.499C1010.76 291.221 1010 291.814 1009.14 292.243C1008.28 292.671 1007.35 292.928 1006.39 292.997C1005.44 293.067 1004.48 292.948 1003.57 292.648C1002.66 292.347 1001.81 291.871 1001.09 291.247L902.799 206.671C901.249 205.338 899.978 203.714 899.059 201.891C898.139 200.069 897.589 198.084 897.44 196.05C897.29 194.016 897.545 191.973 898.189 190.037C898.832 188.101 899.853 186.31 901.191 184.767C902.53 183.223 904.161 181.958 905.991 181.042C907.821 180.127 909.814 179.579 911.856 179.431C913.898 179.283 915.95 179.537 917.893 180.178C919.837 180.82 921.635 181.837 923.184 183.17L1021.47 267.746C1022.25 268.414 1022.88 269.238 1023.31 270.164Z" fill="#FFD803"/>
<path d="M1001.62 242.253C1002.22 243.525 1002.43 244.942 1002.24 246.333C1002.04 247.723 1001.45 249.029 1000.53 250.092L982.018 271.435C980.751 272.892 978.955 273.79 977.024 273.93C975.094 274.07 973.186 273.442 971.72 272.183L891.01 202.734C890.285 202.109 889.69 201.349 889.259 200.496C888.829 199.642 888.571 198.713 888.501 197.76C888.432 196.808 888.551 195.851 888.852 194.944C889.154 194.038 889.632 193.199 890.259 192.477L908.772 171.134C909.399 170.412 910.162 169.819 911.019 169.39C911.876 168.962 912.809 168.705 913.765 168.636C914.722 168.566 915.682 168.685 916.592 168.985C917.503 169.286 918.344 169.762 919.07 170.386L999.78 239.835C1000.56 240.503 1001.18 241.327 1001.62 242.253Z" fill="#272343"/>
<path d="M893.435 52.3059C885.777 45.9939 875.539 51.9637 866.879 51.1164C858.593 50.3058 851.924 43.0434 850.107 35.2283C847.987 26.1107 852.582 16.849 859.505 11.0083C867.088 4.61127 877.268 2.62339 886.969 3.59681C898.088 4.71246 908.331 9.67076 917.554 15.7281C926.452 21.3886 934.663 28.0556 942.022 35.596C948.617 42.5786 954.251 50.9439 956.181 60.4714C957.935 69.1299 956.906 78.781 951.889 86.239C949.226 90.0633 945.619 93.1396 941.415 95.1712C937.034 97.4175 932.347 99.0529 928.109 101.579C921.702 105.399 915.553 113.184 917.734 121.124C918.202 122.858 919.091 124.452 920.323 125.763C921.803 127.339 924.377 125.171 922.893 123.592C920.287 120.818 920.316 117.052 921.612 113.657C923.157 109.83 925.962 106.638 929.566 104.606C934.002 101.967 938.923 100.297 943.475 97.8844C947.834 95.6763 951.592 92.452 954.431 88.4859C959.787 80.7676 961.243 70.8272 959.821 61.6838C958.282 51.7894 952.992 42.8718 946.433 35.4392C939.295 27.3504 930.586 20.5538 921.706 14.4681C912.178 7.93799 901.684 2.46339 890.153 0.629711C880.157 -0.959808 869.38 0.339188 860.772 5.91107C852.736 11.1121 846.666 19.9121 846.231 29.6252C846.093 34.0435 847.139 38.4187 849.262 42.3007C851.385 46.1826 854.508 49.4309 858.31 51.7114C862.21 53.9363 866.712 54.8857 871.181 54.4257C875.962 54.03 880.725 52.4796 885.549 52.7938C887.731 52.8843 889.824 53.6808 891.511 55.0627C893.184 56.4418 895.094 53.6737 893.435 52.3059Z" fill="#2F2E41"/>
<path d="M826.071 349.695C826.092 349.569 826.116 349.443 826.144 349.317C826.343 348.383 826.727 347.497 827.273 346.711C827.819 345.926 828.516 345.256 829.323 344.74L843.255 335.79C844.883 334.747 846.86 334.389 848.753 334.796C850.645 335.202 852.298 336.34 853.349 337.959L896.328 404.325C897.377 405.946 897.737 407.915 897.329 409.8C896.92 411.686 895.777 413.332 894.149 414.378L880.217 423.328C878.589 424.371 876.612 424.728 874.72 424.322C872.827 423.915 871.174 422.778 870.123 421.159L827.144 354.793C826.162 353.286 825.78 351.468 826.071 349.695Z" fill="#524F69"/>
</svg>
