<svg width="632" height="312" viewBox="0 0 632 312" fill="none" xmlns="http://www.w3.org/2000/svg">
<path d="M362.386 305.328C358.474 305.325 354.724 303.774 351.959 301.016C349.194 298.257 347.641 294.517 347.641 290.617C347.641 286.717 349.194 282.977 351.959 280.218C354.724 277.459 358.474 275.908 362.386 275.906H581.557C580.455 273.888 578.828 272.204 576.847 271.03C574.866 269.856 572.605 269.235 570.3 269.234H134.645C128.961 269.24 123.513 271.496 119.496 275.505C115.48 279.515 113.224 284.95 113.225 290.617C113.227 296.282 115.484 301.716 119.5 305.724C123.516 309.733 128.963 311.99 134.645 312H570.3C572.605 311.998 574.866 311.378 576.847 310.204C578.828 309.03 580.455 307.345 581.557 305.328L362.386 305.328Z" fill="#524F69"/>
<path d="M581.848 284.012H373.467C373.148 284.011 372.843 283.884 372.617 283.659C372.392 283.434 372.266 283.129 372.266 282.811C372.266 282.493 372.392 282.188 372.617 281.963C372.843 281.738 373.148 281.611 373.467 281.61H581.848C582.167 281.611 582.473 281.738 582.698 281.963C582.924 282.188 583.05 282.493 583.05 282.811C583.05 283.129 582.924 283.434 582.698 283.659C582.473 283.884 582.167 284.011 581.848 284.012Z" fill="#CCCCCC"/>
<path d="M581.848 291.818H373.467C373.148 291.818 372.841 291.691 372.615 291.466C372.39 291.241 372.263 290.935 372.263 290.617C372.263 290.298 372.39 289.993 372.615 289.768C372.841 289.542 373.148 289.416 373.467 289.416H581.848C582.168 289.416 582.474 289.542 582.7 289.768C582.926 289.993 583.053 290.298 583.053 290.617C583.053 290.935 582.926 291.241 582.7 291.466C582.474 291.691 582.168 291.818 581.848 291.818Z" fill="#CCCCCC"/>
<path d="M581.848 299.624H373.467C373.148 299.623 372.843 299.496 372.617 299.271C372.392 299.046 372.266 298.741 372.266 298.423C372.266 298.105 372.392 297.8 372.617 297.575C372.843 297.349 373.148 297.223 373.467 297.222H581.848C582.167 297.223 582.473 297.349 582.698 297.575C582.924 297.8 583.05 298.105 583.05 298.423C583.05 298.741 582.924 299.046 582.698 299.271C582.473 299.496 582.167 299.623 581.848 299.624Z" fill="#CCCCCC"/>
<path d="M305.773 263.897C301.862 263.894 298.111 262.343 295.346 259.584C292.581 256.826 291.028 253.085 291.028 249.186C291.028 245.286 292.581 241.545 295.346 238.787C298.111 236.028 301.862 234.477 305.773 234.474H524.945C523.843 232.457 522.216 230.773 520.235 229.599C518.254 228.425 515.993 227.804 513.688 227.802H78.0332C72.3494 227.809 66.9006 230.065 62.884 234.074C58.8674 238.083 56.6115 243.519 56.6121 249.186C56.615 254.851 58.872 260.284 62.8878 264.293C66.9037 268.302 72.3504 270.559 78.0332 270.569H513.688C515.993 270.567 518.254 269.947 520.235 268.772C522.216 267.598 523.843 265.914 524.945 263.897L305.773 263.897Z" fill="#FFE035"/>
<path d="M525.236 242.581H316.855C316.536 242.58 316.23 242.453 316.005 242.228C315.78 242.003 315.653 241.698 315.653 241.38C315.653 241.062 315.78 240.757 316.005 240.532C316.23 240.306 316.536 240.18 316.855 240.179H525.236C525.556 240.179 525.862 240.305 526.088 240.531C526.314 240.756 526.441 241.061 526.441 241.38C526.441 241.698 526.314 242.004 526.088 242.229C525.862 242.454 525.556 242.581 525.236 242.581Z" fill="#CCCCCC"/>
<path d="M525.236 250.386H316.855C316.536 250.386 316.229 250.26 316.003 250.035C315.777 249.81 315.65 249.504 315.65 249.186C315.65 248.867 315.777 248.562 316.003 248.336C316.229 248.111 316.536 247.985 316.855 247.985H525.236C525.556 247.985 525.862 248.111 526.088 248.336C526.314 248.562 526.441 248.867 526.441 249.186C526.441 249.504 526.314 249.81 526.088 250.035C525.862 250.26 525.556 250.386 525.236 250.386Z" fill="#CCCCCC"/>
<path d="M525.236 258.192H316.855C316.536 258.192 316.23 258.065 316.005 257.84C315.78 257.614 315.653 257.309 315.653 256.991C315.653 256.673 315.78 256.368 316.005 256.143C316.23 255.918 316.536 255.791 316.855 255.791H525.236C525.395 255.79 525.552 255.821 525.698 255.881C525.844 255.941 525.978 256.03 526.09 256.141C526.202 256.253 526.291 256.385 526.352 256.531C526.412 256.677 526.444 256.833 526.444 256.991C526.444 257.149 526.412 257.306 526.352 257.452C526.291 257.598 526.202 257.73 526.09 257.842C525.978 257.953 525.844 258.042 525.698 258.102C525.552 258.162 525.395 258.193 525.236 258.192Z" fill="#CCCCCC"/>
<path d="M249.161 221.083C245.25 221.08 241.499 219.529 238.734 216.771C235.969 214.012 234.416 210.272 234.416 206.372C234.416 202.472 235.969 198.732 238.734 195.973C241.499 193.215 245.25 191.663 249.161 191.661H468.333C467.23 189.643 465.603 187.959 463.623 186.785C461.642 185.611 459.38 184.99 457.076 184.989H21.4208C15.7369 184.995 10.2882 187.251 6.2716 191.26C2.25504 195.27 -0.000707178 200.705 1.66303e-07 206.372C0.00287579 212.038 2.25977 217.471 6.27556 221.479C10.2913 225.488 15.738 227.745 21.4208 227.755H457.076C459.38 227.753 461.642 227.133 463.623 225.959C465.603 224.785 467.23 223.101 468.333 221.083L249.161 221.083Z" fill="#23203D"/>
<path d="M468.624 199.767H260.243C259.924 199.766 259.618 199.639 259.393 199.414C259.168 199.189 259.041 198.884 259.041 198.566C259.041 198.248 259.168 197.943 259.393 197.718C259.618 197.493 259.924 197.366 260.243 197.365H468.624C468.943 197.365 469.25 197.492 469.476 197.717C469.702 197.942 469.829 198.248 469.829 198.566C469.829 198.885 469.702 199.19 469.476 199.415C469.25 199.64 468.943 199.767 468.624 199.767Z" fill="#CCCCCC"/>
<path d="M468.624 207.573H260.243C260.085 207.573 259.928 207.542 259.782 207.481C259.636 207.421 259.503 207.333 259.391 207.221C259.279 207.11 259.19 206.977 259.13 206.831C259.069 206.686 259.038 206.53 259.038 206.372C259.038 206.214 259.069 206.058 259.13 205.912C259.19 205.767 259.279 205.634 259.391 205.523C259.503 205.411 259.636 205.323 259.782 205.262C259.928 205.202 260.085 205.171 260.243 205.171H468.624C468.782 205.171 468.939 205.202 469.085 205.262C469.231 205.323 469.364 205.411 469.476 205.523C469.588 205.634 469.676 205.767 469.737 205.912C469.797 206.058 469.828 206.214 469.828 206.372C469.828 206.53 469.797 206.686 469.737 206.831C469.676 206.977 469.588 207.11 469.476 207.221C469.364 207.333 469.231 207.421 469.085 207.481C468.939 207.542 468.782 207.573 468.624 207.573Z" fill="#CCCCCC"/>
<path d="M468.624 215.379H260.243C259.923 215.379 259.617 215.252 259.391 215.027C259.165 214.802 259.038 214.496 259.038 214.178C259.038 213.859 259.165 213.554 259.391 213.329C259.617 213.103 259.923 212.977 260.243 212.977H468.624C468.782 212.977 468.939 213.008 469.085 213.068C469.231 213.129 469.364 213.217 469.476 213.329C469.588 213.44 469.676 213.573 469.737 213.718C469.797 213.864 469.828 214.02 469.828 214.178C469.828 214.335 469.797 214.492 469.737 214.637C469.676 214.783 469.588 214.915 469.476 215.027C469.364 215.138 469.231 215.227 469.085 215.287C468.939 215.348 468.782 215.379 468.624 215.379Z" fill="#CCCCCC"/>
<path d="M473.436 129.749C472.293 129.747 471.193 129.313 470.36 128.533C469.526 127.753 469.021 126.687 468.946 125.55L468.277 115.37C468.199 114.181 468.598 113.009 469.386 112.114C470.174 111.218 471.287 110.671 472.479 110.593L552.476 105.37C553.737 105.287 555.002 105.453 556.198 105.858C557.395 106.263 558.5 106.9 559.45 107.73C560.4 108.561 561.177 109.57 561.735 110.7C562.294 111.83 562.624 113.059 562.707 114.316C562.79 115.573 562.623 116.834 562.217 118.027C561.81 119.22 561.172 120.322 560.339 121.269C559.506 122.216 558.494 122.991 557.36 123.548C556.227 124.105 554.995 124.434 553.734 124.517L473.737 129.739C473.637 129.746 473.536 129.749 473.436 129.749Z" fill="#FFD803"/>
<path d="M489.21 131.062C488.045 131.06 486.925 130.608 486.086 129.802C485.247 128.996 484.754 127.897 484.709 126.736L484.139 111.531C484.117 110.941 484.211 110.353 484.417 109.8C484.623 109.247 484.936 108.74 485.339 108.307C485.741 107.875 486.225 107.526 486.763 107.28C487.301 107.034 487.882 106.896 488.474 106.874L554.257 104.423C555.451 104.378 556.615 104.809 557.491 105.619C558.367 106.43 558.884 107.554 558.929 108.745L559.499 123.95C559.521 124.539 559.426 125.128 559.22 125.681C559.014 126.234 558.701 126.741 558.299 127.174C557.896 127.606 557.412 127.955 556.874 128.201C556.336 128.447 555.755 128.585 555.164 128.607L489.38 131.058C489.324 131.061 489.266 131.062 489.21 131.062Z" fill="#272343"/>
<path d="M566.297 271.225H556.065C554.87 271.224 553.725 270.75 552.88 269.908C552.035 269.065 551.56 267.924 551.558 266.732V181.704C551.56 180.513 552.035 179.371 552.88 178.529C553.725 177.686 554.87 177.213 556.065 177.211H566.297C567.492 177.213 568.638 177.686 569.482 178.529C570.327 179.371 570.802 180.513 570.804 181.704V266.732C570.802 267.924 570.327 269.065 569.482 269.908C568.638 270.75 567.492 271.224 566.297 271.225Z" fill="#524F69"/>
<path d="M520.879 226.28L512.128 220.992C511.107 220.373 510.374 219.376 510.089 218.219C509.805 217.062 509.992 215.84 510.61 214.821L554.817 142.107C555.437 141.089 556.438 140.358 557.598 140.075C558.758 139.791 559.984 139.978 561.007 140.594L569.757 145.882C570.778 146.501 571.511 147.498 571.796 148.655C572.08 149.812 571.893 151.034 571.275 152.053L527.068 224.767C526.448 225.785 525.448 226.516 524.287 226.799C523.127 227.083 521.901 226.896 520.879 226.28Z" fill="#524F69"/>
<path d="M550.756 88.475C570.284 88.475 586.114 72.6923 586.114 53.2234C586.114 33.7545 570.284 17.9719 550.756 17.9719C531.229 17.9719 515.399 33.7545 515.399 53.2234C515.399 72.6923 531.229 88.475 550.756 88.475Z" fill="#FFE035"/>
<path d="M531.617 65.2595C530.48 64.887 529.436 64.2759 528.555 63.4674C527.972 62.8902 527.522 62.1928 527.237 61.4239C526.952 60.6551 526.84 59.8336 526.907 59.0168C526.944 58.4348 527.115 57.8693 527.408 57.3643C527.701 56.8594 528.106 56.4287 528.593 56.106C529.858 55.2974 531.549 55.295 533.271 56.0515L533.205 42.2898L534.592 42.2832L534.669 58.4616L533.6 57.7915C532.361 57.0159 530.592 56.47 529.342 57.2697C529.033 57.481 528.777 57.7605 528.594 58.0864C528.411 58.4124 528.306 58.776 528.287 59.149C528.241 59.7575 528.326 60.3688 528.537 60.9414C528.749 61.5141 529.081 62.0345 529.513 62.4675C531.044 63.9256 533.278 64.3816 535.825 64.7891L535.605 66.1539C534.252 65.9751 532.917 65.6758 531.617 65.2595Z" fill="#2F2E41"/>
<path d="M518.912 41.5945L518.731 42.9649L526.134 43.9397L526.316 42.5693L518.912 41.5945Z" fill="#2F2E41"/>
<path d="M542.281 44.6707L542.1 46.041L549.503 47.0159L549.685 45.6455L542.281 44.6707Z" fill="#2F2E41"/>
<path d="M580.28 204.517H520.657C519.095 204.516 517.597 203.896 516.492 202.795C515.388 201.693 514.766 200.2 514.764 198.642L527.246 103.211C527.256 101.66 527.881 100.177 528.985 99.0842C530.089 97.9917 531.581 97.3791 533.136 97.3802H554.295C562.747 97.3897 570.849 100.741 576.826 106.699C582.802 112.658 586.163 120.736 586.173 129.162V198.642C586.171 200.2 585.55 201.693 584.445 202.795C583.34 203.896 581.842 204.516 580.28 204.517Z" fill="#272343"/>
<path d="M631.576 166.914C631.945 167.699 632.077 168.575 631.958 169.434C631.839 170.293 631.474 171.1 630.906 171.757L624.216 179.477C623.829 179.923 623.358 180.289 622.829 180.554C622.3 180.819 621.724 180.977 621.134 181.02C620.544 181.063 619.951 180.99 619.389 180.804C618.827 180.619 618.308 180.325 617.86 179.939L557.197 127.686C556.24 126.862 555.456 125.859 554.888 124.733C554.321 123.607 553.981 122.381 553.889 121.124C553.797 119.867 553.954 118.605 554.351 117.409C554.749 116.213 555.379 115.106 556.205 114.153C557.031 113.199 558.038 112.418 559.167 111.852C560.296 111.286 561.526 110.948 562.787 110.857C564.047 110.765 565.313 110.922 566.513 111.318C567.713 111.715 568.822 112.343 569.778 113.167L630.442 165.42C630.922 165.832 631.308 166.341 631.576 166.914Z" fill="#FFD803"/>
<path d="M618.187 149.67C618.556 150.455 618.688 151.331 618.569 152.19C618.45 153.049 618.085 153.856 617.517 154.513L606.09 167.699C605.308 168.599 604.2 169.153 603.008 169.24C601.816 169.327 600.639 168.939 599.734 168.161L549.921 125.253C549.473 124.868 549.106 124.398 548.84 123.871C548.575 123.343 548.416 122.769 548.373 122.181C548.33 121.592 548.403 121.001 548.589 120.441C548.775 119.881 549.07 119.363 549.457 118.916L560.883 105.731C561.27 105.284 561.741 104.918 562.27 104.653C562.799 104.388 563.375 104.23 563.965 104.187C564.555 104.144 565.148 104.217 565.71 104.403C566.272 104.588 566.791 104.882 567.239 105.268L617.053 148.176C617.532 148.588 617.919 149.097 618.187 149.67Z" fill="#272343"/>
<path d="M551.417 32.3158C546.691 28.4161 540.373 32.1044 535.027 31.5809C529.914 31.0801 525.798 26.5932 524.676 21.7649C523.367 16.1318 526.204 10.4097 530.477 6.80118C535.156 2.84898 541.439 1.62082 547.427 2.22222C554.289 2.91149 560.611 5.97484 566.303 9.71717C571.795 13.2144 576.863 17.3334 581.405 21.992C585.475 26.306 588.952 31.4743 590.144 37.3606C591.226 42.71 590.591 48.6727 587.495 53.2804C585.851 55.6431 583.625 57.5437 581.03 58.7989C578.327 60.1867 575.433 61.1971 572.818 62.7579C568.864 65.1179 565.068 69.9278 566.415 74.833C566.704 75.9046 567.252 76.889 568.013 77.6994C568.926 78.6726 570.515 77.3336 569.599 76.3579C567.99 74.6441 568.008 72.3175 568.808 70.2198C569.762 67.8551 571.493 65.8834 573.717 64.6278C576.455 62.9977 579.492 61.966 582.302 60.4751C584.992 59.111 587.312 57.1189 589.064 54.6685C592.369 49.9 593.268 43.7586 592.39 38.1097C591.44 31.9966 588.176 26.4872 584.127 21.8951C579.722 16.8977 574.347 12.6986 568.866 8.93872C562.986 4.90429 556.509 1.52197 549.392 0.389079C543.223 -0.59296 536.571 0.209588 531.258 3.65202C526.299 6.8653 522.553 12.3022 522.284 18.3031C522.199 21.0329 522.844 23.736 524.155 26.1343C525.465 28.5326 527.393 30.5395 529.739 31.9485C532.146 33.323 534.924 33.9096 537.683 33.6254C540.633 33.381 543.573 32.4231 546.55 32.6172C547.897 32.6731 549.189 33.1652 550.23 34.0189C551.263 34.871 552.442 33.1608 551.417 32.3158Z" fill="#2F2E41"/>
<path d="M509.842 216.049C509.854 215.971 509.869 215.893 509.886 215.816C510.009 215.238 510.246 214.691 510.583 214.206C510.92 213.72 511.35 213.306 511.848 212.988L520.447 207.458C521.452 206.814 522.672 206.593 523.84 206.844C525.008 207.095 526.028 207.798 526.677 208.798L553.203 249.801C553.85 250.802 554.073 252.019 553.821 253.184C553.569 254.348 552.863 255.366 551.859 256.012L543.259 261.541C542.255 262.186 541.034 262.407 539.867 262.155C538.699 261.904 537.679 261.201 537.03 260.201L510.504 219.199C509.898 218.268 509.662 217.145 509.842 216.049Z" fill="#524F69"/>
</svg>
