<svg width="23" height="20" viewBox="0 0 23 20" fill="none" xmlns="http://www.w3.org/2000/svg">
<path d="M19.7915 12.4416C19.5252 12.1833 19.097 12.1865 18.835 12.4489C18.5728 12.7113 18.5762 13.1335 18.8424 13.3917L19.7915 12.4416ZM20.045 14.5584C20.3113 14.8167 20.7396 14.8135 21.0017 14.5511C21.2638 14.2887 21.2604 13.8665 20.9941 13.6083L20.045 14.5584ZM21.1209 7C20.7474 7 20.4444 7.29848 20.4444 7.66667C20.4444 8.0348 20.7474 8.33333 21.1209 8.33333V7ZM22.3235 8.33333C22.6971 8.33333 23 8.0348 23 7.66667C23 7.29848 22.6971 7 22.3235 7V8.33333ZM19.4438 1.35823C19.1775 1.61652 19.1742 2.03863 19.4362 2.30101C19.6983 2.5634 20.1266 2.56672 20.3929 2.30844L19.4438 1.35823ZM21.5955 1.14177C21.8618 0.88348 21.8652 0.461373 21.603 0.198987C21.3409 -0.0634 20.9125 -0.0667199 20.6464 0.19156L21.5955 1.14177ZM2.60714 2.30844C2.87339 2.56672 3.3017 2.5634 3.56378 2.30101C3.82587 2.03863 3.82251 1.61652 3.55626 1.35823L2.60714 2.30844ZM2.35364 0.19156C2.08738 -0.0667199 1.65908 -0.0634 1.39699 0.198987C1.1349 0.461373 1.13828 0.88348 1.40453 1.14177L2.35364 0.19156ZM1.87909 8.33333C2.25269 8.33333 2.55556 8.0348 2.55556 7.66667C2.55556 7.29848 2.25269 7 1.87909 7V8.33333ZM0.676471 7C0.302869 7 0 7.29848 0 7.66667C0 8.0348 0.302869 8.33333 0.676471 8.33333V7ZM4.15756 13.3917C4.42381 13.1335 4.42719 12.7113 4.1651 12.4489C3.90301 12.1865 3.4747 12.1833 3.20845 12.4416L4.15756 13.3917ZM2.00583 13.6083C1.73959 13.8665 1.73622 14.2887 1.99831 14.5511C2.2604 14.8135 2.6887 14.8167 2.95495 14.5584L2.00583 13.6083ZM12.6177 4.59741C12.859 4.3164 12.8236 3.89575 12.5384 3.65784C12.2532 3.41995 11.8265 3.45491 11.585 3.73592L12.6177 4.59741ZM9.09474 7.66667L8.57847 7.23592C8.40826 7.434 8.37025 7.7116 8.48106 7.94707C8.59187 8.18267 8.83132 8.33333 9.09474 8.33333V7.66667ZM13.9053 7.66667L14.4215 8.09747C14.5917 7.89933 14.6298 7.62173 14.519 7.38627C14.4081 7.15071 14.1687 7 13.9053 7V7.66667ZM10.3823 10.7359C10.141 11.0169 10.1764 11.4376 10.4616 11.6755C10.7468 11.9133 11.1735 11.8784 11.415 11.5975L10.3823 10.7359ZM9.69612 18.6667C9.32244 18.6667 9.01965 18.9652 9.01965 19.3333C9.01965 19.7015 9.32244 20 9.69612 20V18.6667ZM13.3039 20C13.6776 20 13.9803 19.7015 13.9803 19.3333C13.9803 18.9652 13.6776 18.6667 13.3039 18.6667V20ZM4.96079 7.66667C4.96079 4.17872 7.87841 1.33333 11.5 1.33333V0C7.15136 0 3.60785 3.42263 3.60785 7.66667H4.96079ZM11.5 1.33333C15.1216 1.33333 18.0392 4.17872 18.0392 7.66667H19.3921C19.3921 3.42263 15.8486 0 11.5 0V1.33333ZM18.0392 7.66667C18.0392 10.0241 16.7088 12.0863 14.7245 13.1779L15.384 14.3421C17.7724 13.0281 19.3921 10.534 19.3921 7.66667H18.0392ZM14.7245 13.1779C13.7739 13.7008 12.6742 14 11.5 14V15.3333C12.9102 15.3333 14.2363 14.9735 15.384 14.3421L14.7245 13.1779ZM11.5 14C10.3258 14 9.22611 13.7008 8.27547 13.1779L7.61602 14.3421C8.7637 14.9735 10.0898 15.3333 11.5 15.3333V14ZM8.27547 13.1779C6.29123 12.0863 4.96079 10.0241 4.96079 7.66667H3.60785C3.60785 10.534 5.22768 13.0281 7.61602 14.3421L8.27547 13.1779ZM8.99543 15.9125L8.61303 13.6504L7.27847 13.8695L7.66088 16.1317L8.99543 15.9125ZM14.3869 13.6504L14.0044 15.9127L15.339 16.1317L15.7214 13.8696L14.3869 13.6504ZM18.8424 13.3917L20.045 14.5584L20.9941 13.6083L19.7915 12.4416L18.8424 13.3917ZM21.1209 8.33333H22.3235V7H21.1209V8.33333ZM20.3929 2.30844L21.5955 1.14177L20.6464 0.19156L19.4438 1.35823L20.3929 2.30844ZM3.55626 1.35823L2.35364 0.19156L1.40453 1.14177L2.60714 2.30844L3.55626 1.35823ZM1.87909 7H0.676471V8.33333H1.87909V7ZM3.20845 12.4416L2.00583 13.6083L2.95495 14.5584L4.15756 13.3917L3.20845 12.4416ZM11.585 3.73592L8.57847 7.23592L9.61102 8.09747L12.6177 4.59741L11.585 3.73592ZM9.09474 8.33333H13.9053V7H9.09474V8.33333ZM13.389 7.23592L10.3823 10.7359L11.415 11.5975L14.4215 8.09747L13.389 7.23592ZM13.485 16.3333H9.51496V17.6667H13.485V16.3333ZM9.69612 20H13.3039V18.6667H9.69612V20ZM14.0044 15.9127C13.9648 16.1476 13.751 16.3333 13.485 16.3333V17.6667C14.3971 17.6667 15.188 17.0245 15.339 16.1317L14.0044 15.9127ZM7.66088 16.1317C7.81181 17.0245 8.60285 17.6667 9.51496 17.6667V16.3333C9.24884 16.3333 9.03521 16.1476 8.99543 15.9125L7.66088 16.1317Z" fill="#FFFFFE"/>
</svg>
