<svg width="580" height="397" viewBox="0 0 580 397" fill="none" xmlns="http://www.w3.org/2000/svg">
<g clip-path="url(#clip0_305_283)">
<path d="M15.3572 396.124C15.3572 396.61 15.7662 397 16.2755 397H579.082C579.591 397 580 396.61 580 396.124C580 395.638 579.591 395.248 579.082 395.248H16.2755C15.7662 395.248 15.3572 395.638 15.3572 396.124Z" fill="#3F3D58"/>
<path d="M195.576 70.0281H15.0716C8.18793 70.0281 2.58525 64.6849 2.58525 58.12C2.58525 51.5551 8.18793 46.2119 15.0716 46.2119H195.576C202.46 46.2119 208.063 51.5551 208.063 58.12C208.063 64.6849 202.46 70.0281 195.576 70.0281ZM15.0716 47.6839C9.03682 47.6839 4.12869 52.3647 4.12869 58.12C4.12869 63.8753 9.03682 68.5561 15.0716 68.5561H195.576C201.611 68.5561 206.519 63.8753 206.519 58.12C206.519 52.3647 201.611 47.6839 195.576 47.6839H15.0716Z" fill="#E8C503"/>
<path d="M195.576 209.385H15.0717C8.39629 209.385 2.97111 204.211 2.97111 197.845C2.97111 191.479 8.39629 186.305 15.0717 186.305H195.576C202.252 186.305 207.677 191.479 207.677 197.845C207.677 204.211 202.252 209.385 195.576 209.385Z" fill="#FFD803"/>
<path d="M136.424 23.0802H12.1005C5.42518 23.0802 0 17.9063 0 11.5401C0 5.17391 5.42518 0 12.1005 0H136.424C143.1 0 148.525 5.17391 148.525 11.5401C148.525 17.9063 143.1 23.0802 136.424 23.0802Z" fill="#FFD803"/>
<path d="M195.576 116.601H15.0716C8.18793 116.601 2.58525 111.257 2.58525 104.693C2.58525 98.1276 8.18793 92.7844 15.0716 92.7844H195.576C202.46 92.7844 208.063 98.1276 208.063 104.693C208.063 111.257 202.46 116.601 195.576 116.601ZM15.0716 94.2564C9.03682 94.2564 4.12869 98.9372 4.12869 104.693C4.12869 110.448 9.03682 115.129 15.0716 115.129H195.576C201.611 115.129 206.519 110.448 206.519 104.693C206.519 98.9372 201.611 94.2564 195.576 94.2564H15.0716Z" fill="#E8C503"/>
<path d="M195.576 163.181H15.0716C8.18793 163.181 2.58525 157.837 2.58525 151.272C2.58525 144.708 8.18793 139.364 15.0716 139.364H195.576C202.46 139.364 208.063 144.708 208.063 151.272C208.063 157.837 202.46 163.181 195.576 163.181ZM15.0716 140.836C9.03682 140.836 4.12869 145.517 4.12869 151.272C4.12869 157.028 9.03682 161.709 15.0716 161.709H195.576C201.611 161.709 206.519 157.028 206.519 151.272C206.519 145.517 201.611 140.836 195.576 140.836H15.0716Z" fill="#E8C503"/>
<path d="M8.86704 37.6599H56.1733C57.3001 37.6599 58.2184 38.5284 58.2184 39.6102C58.2184 40.6848 57.3001 41.5606 56.1733 41.5606H8.86704C7.74033 41.5606 6.82199 40.6921 6.82199 39.6102C6.82199 38.5357 7.74033 37.6599 8.86704 37.6599Z" fill="#FFFBE6"/>
<path d="M8.86704 85.3364H56.1733C57.3001 85.3364 58.2184 86.2049 58.2184 87.2794C58.2184 88.3539 57.3001 89.2297 56.1733 89.2297H8.86704C7.74033 89.2297 6.82199 88.3613 6.82199 87.2868C6.82199 86.2122 7.74033 85.3364 8.86704 85.3364Z" fill="#FFFBE6"/>
<path d="M8.86704 133.02H56.1733C57.3001 133.02 58.2184 133.889 58.2184 134.971C58.2184 136.045 57.3001 136.914 56.1733 136.914H8.86704C7.74033 136.914 6.82199 136.045 6.82199 134.963C6.82199 133.889 7.74033 133.02 8.86704 133.02Z" fill="#FFFBE6"/>
<path d="M345.02 97.3401L327.764 102.757V79.0658H343.422L345.02 97.3401Z" fill="#9F616A"/>
<path d="M329.902 85.6233C339.398 85.6233 347.096 78.2819 347.096 69.2258C347.096 60.1697 339.398 52.8282 329.902 52.8282C320.406 52.8282 312.708 60.1697 312.708 69.2258C312.708 78.2819 320.406 85.6233 329.902 85.6233Z" fill="#9F616A"/>
<path d="M334.625 67.5993C331.746 67.5184 329.855 64.7437 328.736 62.212C327.617 59.6802 326.468 56.7731 323.797 55.728C321.613 54.8743 317.763 60.6517 316.042 59.1135C314.244 57.5091 315.995 49.2735 317.901 47.7942C319.808 46.3149 322.416 46.0279 324.87 45.9175C330.859 45.6525 336.886 46.1162 342.758 47.2864C346.393 48.0077 350.128 49.0969 352.752 51.5992C356.071 54.7786 356.92 59.5698 357.159 64.0519C357.406 68.6371 357.128 73.4356 354.79 77.4467C352.451 81.4578 347.559 84.4164 342.867 83.3934C342.396 80.9646 342.874 78.4697 343.059 75.9968C343.237 73.5313 343.052 70.8671 341.47 68.902C339.895 66.937 336.515 66.1568 334.679 67.9011" fill="#2F2E43"/>
<path d="M355.777 73.281C357.498 72.0814 359.559 71.0731 361.673 71.3233C363.958 71.5883 365.895 73.3841 366.481 75.511C367.068 77.638 366.412 79.9784 364.992 81.7153C363.579 83.4522 361.473 84.6004 359.25 85.1744C357.961 85.5056 356.549 85.6454 355.322 85.145C353.516 84.4016 352.536 82.2011 353.246 80.4494" fill="#2F2E43"/>
<path d="M289.981 227.564C288.831 232.951 290.938 237.875 294.673 238.559C298.408 239.244 302.367 235.424 303.509 230.036C303.995 227.887 303.918 225.665 303.285 223.545L317.508 139.092L299.72 135.898L292.852 221.639C291.393 223.376 290.413 225.407 289.981 227.571V227.564Z" fill="#9F616A"/>
<path d="M327.579 91.8865H315.44C306.858 93.1303 304.528 97.4946 302.575 105.561C299.596 117.866 295.792 134.249 296.548 134.492C297.76 134.875 318.426 144.148 328.96 142.028L327.579 91.8865Z" fill="#E2E3E4"/>
<path d="M339.317 360.893H323.157V382.759H339.317V360.893Z" fill="#9F616A"/>
<path d="M307.422 395.992C305.724 395.992 304.211 395.955 303.069 395.852C298.778 395.476 294.68 392.452 292.62 390.685C291.694 389.89 291.401 388.625 291.879 387.535C292.226 386.755 292.913 386.166 293.77 385.938L305.114 382.847L323.481 371.027L323.689 371.381C323.767 371.513 325.572 374.612 326.174 376.702C326.406 377.497 326.344 378.159 325.997 378.674C325.758 379.027 325.418 379.233 325.148 379.351C325.48 379.682 326.522 380.359 329.732 380.845C334.416 381.552 335.404 376.923 335.443 376.731L335.473 376.577L335.612 376.488C337.843 375.119 339.216 374.494 339.687 374.626C339.98 374.707 340.474 374.854 341.809 387.462C341.94 387.859 342.874 390.759 342.241 393.533C341.555 396.551 327.725 395.513 324.955 395.278C324.878 395.285 314.521 395.992 307.429 395.992H307.422Z" fill="#2F2E43"/>
<path d="M385.331 343.714L371.62 351.869L383.752 370.422L397.464 362.267L385.331 343.714Z" fill="#9F616A"/>
<path d="M367.122 392.996C365.223 392.996 363.479 392.776 362.237 392.57C361.017 392.363 360.06 391.436 359.86 390.273C359.721 389.434 359.976 388.588 360.577 387.962L368.488 379.616L377.517 360.319L377.887 360.51C378.026 360.584 381.275 362.299 382.95 363.771C383.59 364.33 383.906 364.926 383.891 365.537C383.883 365.964 383.714 366.303 383.544 366.545C384.007 366.663 385.265 366.707 388.259 365.5C392.627 363.741 390.898 359.311 390.821 359.127L390.759 358.98L390.829 358.84C391.963 356.551 392.774 355.329 393.252 355.204C393.553 355.123 394.047 354.998 402.173 365.029C402.505 365.294 404.905 367.289 405.908 369.96C406.996 372.867 394.687 378.969 392.21 380.161C392.133 380.22 379.253 389.147 373.959 391.686C371.86 392.695 369.375 393.004 367.114 393.004L367.122 392.996Z" fill="#2F2E43"/>
<path d="M351.217 178.04H305.971L301.865 218.18L319.831 366.494H342.928L333.691 280.834L371.158 358.17L391.685 344.466L362.43 272.267C362.43 272.267 372.879 209.37 364.668 193.701C356.456 178.04 351.217 178.04 351.217 178.04Z" fill="#FFE035"/>
<path d="M373.728 180.483H301.865L323.427 91.8865H354.736L373.728 180.483Z" fill="#E2E3E4"/>
<path d="M380.195 227.564C381.344 232.951 379.238 237.875 375.502 238.559C371.767 239.244 367.808 235.424 366.666 230.036C366.18 227.887 366.257 225.665 366.89 223.545L352.667 139.092L370.455 135.898L377.324 221.639C378.782 223.376 379.762 225.407 380.195 227.571V227.564Z" fill="#9F616A"/>
<path d="M342.596 91.8865H354.736C363.317 93.1303 365.648 97.4946 367.6 105.561C370.579 117.866 374.383 134.249 373.627 134.492C372.416 134.875 351.749 144.148 341.215 142.028L342.596 91.8865Z" fill="#E2E3E4"/>
</g>
<defs>
<clipPath id="clip0_305_283">
<rect width="580" height="397" fill="white"/>
</clipPath>
</defs>
</svg>
