<svg width="580" height="397" viewBox="0 0 580 397" fill="none" xmlns="http://www.w3.org/2000/svg">
<g clip-path="url(#clip0_305_98)">
<path d="M444.062 392.511C436.636 385.327 432.126 373.979 433.309 362.932C434.491 351.884 441.818 341.728 451.321 339.382C460.824 337.036 471.657 343.53 474.543 354.159C476.132 333.668 477.962 312.319 487.478 294.869C496.094 279.068 511.017 267.763 527.19 265.74C543.364 263.718 560.392 271.357 570.479 285.972C580.566 300.587 583.035 321.834 575.971 338.613C570.767 350.973 561.179 360.172 551.133 367.656C518.672 391.635 479.739 401.387 441.497 395.116L444.062 392.511Z" fill="#E3F6F5"/>
<path d="M554.485 271.78C541.14 284.225 528.898 298.143 517.935 313.334C500.777 337.026 486.893 363.589 476.766 392.097C476.025 394.177 478.975 395.082 479.708 393.026C496.277 346.693 522.728 305.856 556.642 274.25C558.165 272.83 555.996 270.372 554.485 271.78Z" fill="white"/>
<path d="M186.711 390.559C196.91 380.692 203.105 365.106 201.481 349.932C199.856 334.758 189.794 320.809 176.741 317.587C163.688 314.365 148.809 323.284 144.845 337.882C142.663 309.738 140.149 280.415 127.079 256.448C115.245 234.746 94.7482 219.217 72.5341 216.439C50.3201 213.661 26.9315 224.154 13.0774 244.227C-0.776731 264.301 -4.16885 293.484 5.5342 316.53C12.6821 333.507 25.8511 346.142 39.6488 356.421C83.6685 389.215 138.275 402.892 190.234 394.137" fill="#E3F6F5"/>
<path d="M35.0445 224.735C53.3738 241.828 70.1891 260.945 85.247 281.809C100.307 302.652 113.566 325.118 124.838 348.892C131.138 362.229 136.798 375.948 141.791 389.991C142.81 392.848 138.758 394.091 137.751 391.266C128.906 366.509 117.963 342.804 105.078 320.492C92.2568 298.26 77.5817 277.504 61.2593 258.516C52.0273 247.782 42.2868 237.637 32.0818 228.127C29.9901 226.177 32.97 222.801 35.0445 224.735Z" fill="white"/>
<path d="M416.333 396.131H173V110.291C173 49.4761 216.215 0 269.333 0H320C373.118 0 416.333 49.4761 416.333 110.291V396.131Z" fill="#FFF3B1"/>
<path d="M365.667 396.131H173V110.291C172.947 86.9881 179.392 64.2742 191.397 45.4564C191.84 44.7658 192.281 44.0842 192.736 43.41C198.543 34.6906 205.453 27.0115 213.239 20.6263C213.679 20.2599 214.12 19.8999 214.569 19.5399C221.083 14.3783 228.131 10.1588 235.55 6.97744C235.991 6.78625 236.439 6.59469 236.888 6.41095C243.598 3.66938 250.554 1.79143 257.627 0.811748C258.065 0.743169 258.515 0.689505 258.965 0.635841C265.858 -0.207919 272.81 -0.207919 279.702 0.635841C280.151 0.689505 280.602 0.743162 281.045 0.812481C288.116 1.79222 295.07 3.66995 301.779 6.41099C302.228 6.59472 302.676 6.78628 303.118 6.97784C310.446 10.1191 317.41 14.2756 323.856 19.3547C324.303 19.7069 324.752 20.0669 325.193 20.4269C329.557 23.9934 333.656 27.9667 337.449 32.3063C340.49 35.787 343.324 39.4974 345.932 43.4123C346.386 44.0842 346.827 44.7659 347.269 45.4553C359.274 64.2733 365.72 86.9876 365.667 110.291V396.131Z" fill="#FFE035"/>
<path d="M350 268.285C355.891 268.285 360.667 262.818 360.667 256.073C360.667 249.329 355.891 243.861 350 243.861C344.109 243.861 339.333 249.329 339.333 256.073C339.333 262.818 344.109 268.285 350 268.285Z" fill="#F9A826"/>
<path d="M396.399 387.57H388.226L384.337 351.477L396.401 351.477L396.399 387.57Z" fill="#FFB8B8"/>
<path d="M382.388 384.896H398.15V396.258H372.463C372.463 394.766 372.72 393.289 373.219 391.91C373.717 390.531 374.449 389.279 375.37 388.224C376.292 387.169 377.386 386.332 378.59 385.761C379.794 385.19 381.085 384.896 382.388 384.896Z" fill="#2F2E41"/>
<path d="M437.066 387.57H428.893L425.004 351.477L437.067 351.477L437.066 387.57Z" fill="#FFB8B8"/>
<path d="M423.054 384.896H438.817V396.258H413.13C413.13 394.766 413.387 393.289 413.885 391.91C414.384 390.531 415.115 389.279 416.037 388.224C416.958 387.169 418.052 386.332 419.257 385.761C420.461 385.19 421.751 384.896 423.054 384.896Z" fill="#2F2E41"/>
<path d="M355.398 258.492C354.81 257.5 354.42 256.373 354.253 255.19C354.087 254.006 354.149 252.795 354.436 251.642C354.723 250.49 355.227 249.423 355.913 248.517C356.598 247.611 357.449 246.888 358.405 246.4L386.189 158.727L399.861 167.269L368.138 251.052C368.748 252.946 368.73 255.03 368.089 256.909C367.447 258.789 366.225 260.333 364.654 261.25C363.084 262.168 361.275 262.393 359.569 261.885C357.863 261.377 356.379 260.169 355.398 258.492Z" fill="#FFB8B8"/>
<path d="M432.891 274.967C431.983 274.37 431.2 273.553 430.597 272.573C429.994 271.593 429.587 270.473 429.403 269.293C429.219 268.113 429.263 266.901 429.533 265.743C429.802 264.585 430.29 263.508 430.962 262.589L422.355 169.846L437.914 170.66L441.491 261.885C442.764 263.28 443.547 265.162 443.69 267.173C443.833 269.185 443.326 271.186 442.266 272.799C441.206 274.411 439.666 275.523 437.938 275.922C436.21 276.322 434.414 275.982 432.891 274.967Z" fill="#FFB8B8"/>
<path d="M408.071 142.488C417.114 142.488 424.445 134.095 424.445 123.741C424.445 113.388 417.114 104.995 408.071 104.995C399.027 104.995 391.697 113.388 391.697 123.741C391.697 134.095 399.027 142.488 408.071 142.488Z" fill="#FFB8B8"/>
<path d="M432.786 253.874H383.422L383.481 253.434C383.57 252.777 392.279 187.459 385.856 166.09C385.211 163.99 385.268 161.691 386.015 159.636C386.762 157.581 388.146 155.915 389.902 154.959C399.083 150.009 416.707 143.914 431.582 158.706C433.771 160.918 435.48 163.684 436.575 166.783C437.669 169.882 438.119 173.231 437.888 176.563L432.786 253.874Z" fill="#F9A826"/>
<path d="M392.903 197.112L370.678 191.95L381.096 163.686C381.719 160.949 383.266 158.606 385.396 157.172C387.526 155.739 390.066 155.33 392.458 156.038C394.851 156.745 396.901 158.509 398.158 160.945C399.416 163.38 399.778 166.287 399.166 169.027L392.903 197.112Z" fill="#F9A826"/>
<path d="M421.367 206.696L420.031 171.631C419.018 165.04 422.314 158.808 427.382 157.79C432.453 156.775 437.404 161.347 438.421 167.987L443.443 200.752L421.367 206.696Z" fill="#F9A826"/>
<path d="M431.144 249.676C439.087 284.31 439.954 328.345 437.811 376.377L427.144 374.85L407.811 283.259L397.144 376.377L385.144 375.614C381.559 325.216 378.069 281.95 383.811 253.492L431.144 249.676Z" fill="#2F2E41"/>
<path d="M418.859 138.229C415.805 141.954 410.132 139.955 409.734 134.865C409.703 134.47 409.705 134.073 409.741 133.678C409.946 131.424 411.084 129.377 410.811 126.997C410.75 126.404 410.557 125.84 410.251 125.357C407.817 121.625 402.103 127.026 399.806 123.647C398.397 121.576 400.053 118.314 398.972 115.999C397.545 112.943 393.319 114.451 390.669 112.777C387.721 110.915 387.897 105.736 389.838 102.586C392.205 98.7438 396.355 96.6937 400.454 96.3983C404.552 96.1028 408.622 97.3712 412.449 99.0784C416.796 101.018 421.107 103.699 423.782 108.075C427.036 113.398 427.349 120.553 425.722 126.776C424.732 130.562 421.354 135.187 418.859 138.229Z" fill="#2F2E41"/>
<path d="M559.988 396.622H67.7917C67.5816 396.621 67.3803 396.525 67.2319 396.355C67.0836 396.185 67.0003 395.954 67.0003 395.713C67.0003 395.473 67.0836 395.242 67.2319 395.072C67.3803 394.901 67.5816 394.805 67.7917 394.805H559.988C560.198 394.805 560.399 394.901 560.548 395.072C560.696 395.242 560.779 395.473 560.779 395.713C560.779 395.954 560.696 396.185 560.548 396.355C560.399 396.525 560.198 396.621 559.988 396.622Z" fill="#8C7702"/>
<path d="M312.667 313.318H226C224.859 313.325 223.761 312.813 222.949 311.895C222.137 310.977 221.675 309.728 221.667 308.421V86.9468C221.675 85.6401 222.137 84.3907 222.949 83.4727C223.761 82.5548 224.859 82.0432 226 82.0502H312.667C313.808 82.0432 314.905 82.5548 315.718 83.4727C316.53 84.3907 316.991 85.6401 317 86.9468V308.421C316.991 309.728 316.53 310.977 315.718 311.895C314.905 312.813 313.808 313.325 312.667 313.318Z" fill="white"/>
<path d="M317 153.712H221.667V155.239H317V153.712Z" fill="#CCCCCC"/>
<path d="M317.333 240.808H222V242.334H317.333V240.808Z" fill="#CCCCCC"/>
<path d="M253 82.0503H251.667V314.081H253V82.0503Z" fill="#CCCCCC"/>
<path d="M286.333 82.0503H285V314.081H286.333V82.0503Z" fill="#CCCCCC"/>
</g>
<defs>
<clipPath id="clip0_305_98">
<rect width="580" height="397" fill="white"/>
</clipPath>
</defs>
</svg>
