<svg width="580" height="397" viewBox="0 0 580 397" fill="none" xmlns="http://www.w3.org/2000/svg">
<path d="M34.281 334.898L16.4994 320.343C18.5329 308.674 23.4805 297.662 30.9126 288.263C31.5102 309.291 53.7941 323.374 61.4624 343.059C63.8055 349.217 64.6859 355.805 64.0386 362.337C63.3913 368.868 61.2328 375.175 57.7231 380.789L55.9342 396.676C46.2233 391.781 37.7248 384.908 31.0244 376.53C24.324 368.153 19.581 358.47 17.122 348.148C15.8018 342.345 15.2425 336.404 15.4571 330.465C24.5615 333.145 34.281 334.898 34.281 334.898Z" fill="#E8C503"/>
<path d="M532.728 362.739L545.146 343.675C557.375 343.994 569.34 347.195 580 353C558.556 356.509 547.251 379.819 528.17 389.912C522.193 393.016 515.571 394.78 508.795 395.072C502.018 395.364 495.261 394.177 489.023 391.6L472.51 392.105C476.164 382.12 482.014 373.021 489.654 365.433C497.295 357.846 506.545 351.951 516.768 348.155C522.525 346.08 528.529 344.714 534.638 344.091C533.166 353.185 532.728 362.739 532.728 362.739Z" fill="#E8C503"/>
<path d="M139.679 300.594L70.8275 296.687L80.2653 232.133L140.937 295.383L139.679 300.594Z" fill="#E8C503"/>
<path d="M130.915 366.452L60.8052 361.888L70.1534 303.208L131.231 361.898L130.915 366.452Z" fill="#F2F2F2"/>
<path d="M522.573 94.14V34.5114C522.573 29.9793 521.65 25.4916 519.857 21.3044C518.064 17.1173 515.436 13.3128 512.122 10.1082C508.809 6.90347 504.876 4.36138 500.547 2.62702C496.218 0.892665 491.579 0 486.893 0H356.286C351.6 -8.56297e-07 346.961 0.892665 342.632 2.62702C338.303 4.36138 334.37 6.90347 331.056 10.1082C327.743 13.3128 325.115 17.1173 323.322 21.3045C321.529 25.4916 320.606 29.9793 320.606 34.5114V361.638C320.606 370.791 324.365 379.57 331.056 386.042C337.748 392.514 346.823 396.15 356.286 396.15H486.893C496.356 396.15 505.431 392.514 512.122 386.042C518.814 379.57 522.573 370.792 522.573 361.639V136.585C523.169 136.585 523.742 136.355 524.164 135.947C524.586 135.539 524.823 134.985 524.823 134.408V96.3166C524.823 95.7394 524.586 95.1857 524.164 94.7775C523.742 94.3693 523.17 94.14 522.573 94.14Z" fill="#3F3D56"/>
<path d="M514.979 34.7482V361.403C514.98 368.188 512.213 374.699 507.279 379.522C502.345 384.345 495.643 387.09 488.629 387.161C488.532 387.171 488.434 387.175 488.337 387.173H357.094C350.028 387.172 343.252 384.457 338.256 379.624C333.259 374.792 330.452 368.237 330.452 361.403V34.7482C330.452 27.9138 333.259 21.3595 338.256 16.5268C343.252 11.6942 350.028 8.97891 357.094 8.97828H373.021C372.238 10.8381 371.94 12.8556 372.152 14.8531C372.364 16.8507 373.081 18.7671 374.239 20.4339C375.397 22.1006 376.961 23.4665 378.793 24.4114C380.625 25.3563 382.668 25.8513 384.745 25.8527H459.569C461.643 25.8472 463.684 25.3494 465.513 24.4031C467.342 23.4568 468.903 22.0909 470.059 20.4251C471.216 18.7593 471.931 16.8445 472.144 14.8488C472.357 12.8531 472.06 10.8373 471.28 8.97827H488.337C495.403 8.9789 502.179 11.6941 507.175 16.5268C512.172 21.3595 514.979 27.9138 514.979 34.7482Z" fill="white"/>
<path d="M486.084 379.199C486.084 382.583 485.974 385.939 485.754 389.267C485.658 389.278 485.561 389.282 485.464 389.28H354.224C348.286 389.279 342.518 387.361 337.836 383.829C333.154 380.297 329.825 375.353 328.378 369.783C328.124 368.811 327.933 367.824 327.805 366.829C327.656 365.729 327.581 364.62 327.582 363.51V217.938C337.681 218.421 347.713 219.792 357.554 222.033C358.518 222.248 359.476 222.476 360.426 222.711C360.487 222.724 360.547 222.744 360.608 222.757C361.572 222.991 362.529 223.239 363.48 223.493C383.769 228.883 402.814 237.953 419.601 250.221C420.565 250.919 421.523 251.636 422.473 252.36L422.655 252.497C424.246 253.71 425.812 254.953 427.354 256.227C427.698 256.507 428.041 256.794 428.379 257.088C429.208 257.779 430.037 258.483 430.846 259.194C448.748 274.78 462.959 293.922 472.507 315.31C472.824 316.008 473.127 316.712 473.431 317.416C473.552 317.703 473.673 317.99 473.795 318.277C473.909 318.538 474.017 318.798 474.125 319.059C482.05 338.182 486.11 358.597 486.084 379.199Z" fill="#3F3D56"/>
<path d="M321.328 127.498C320.523 127.498 319.751 127.188 319.181 126.637C318.612 126.086 318.292 125.34 318.291 124.561V104.584C318.291 103.805 318.611 103.058 319.18 102.507C319.75 101.956 320.522 101.646 321.328 101.646C322.133 101.646 322.906 101.956 323.475 102.507C324.045 103.058 324.365 103.805 324.365 104.584V124.561C324.364 125.34 324.044 126.086 323.474 126.637C322.905 127.188 322.133 127.498 321.328 127.498Z" fill="#3F3D56"/>
<path d="M320.72 88.7202C319.915 88.7192 319.143 88.4094 318.574 87.8587C318.004 87.308 317.684 86.5613 317.683 85.7824V65.8057C317.683 65.0265 318.003 64.2793 318.573 63.7284C319.142 63.1774 319.915 62.8679 320.72 62.8679C321.526 62.8679 322.298 63.1774 322.868 63.7284C323.438 64.2793 323.758 65.0265 323.758 65.8057V85.7824C323.757 86.5613 323.436 87.308 322.867 87.8587C322.298 88.4094 321.526 88.7192 320.72 88.7202Z" fill="#3F3D56"/>
<path d="M401.51 12.3385C401.511 11.5597 401.831 10.813 402.4 10.2622C402.97 9.71148 403.742 9.40167 404.547 9.40076H425.2C425.599 9.40018 425.994 9.47575 426.363 9.62312C426.732 9.7705 427.068 9.98681 427.35 10.2597C427.633 10.5325 427.857 10.8566 428.01 11.2133C428.163 11.57 428.242 11.9524 428.242 12.3385C428.242 12.7247 428.163 13.107 428.01 13.4638C427.857 13.8205 427.633 14.1445 427.35 14.4174C427.068 14.6902 426.732 14.9065 426.363 15.0539C425.994 15.2013 425.599 15.2768 425.2 15.2763H404.547C403.742 15.2754 402.97 14.9656 402.4 14.4148C401.831 13.8641 401.511 13.1174 401.51 12.3385Z" fill="white"/>
<path d="M321.328 161.576C320.523 161.576 319.751 161.266 319.181 160.715C318.612 160.164 318.292 159.418 318.291 158.639V138.662C318.291 137.883 318.611 137.136 319.18 136.585C319.75 136.034 320.522 135.724 321.328 135.724C322.133 135.724 322.906 136.034 323.475 136.585C324.045 137.136 324.365 137.883 324.365 138.662V158.639C324.364 159.418 324.044 160.164 323.474 160.715C322.905 161.266 322.133 161.576 321.328 161.576Z" fill="#3F3D56"/>
<path d="M436.741 15.2763C438.419 15.2763 439.778 13.961 439.778 12.3385C439.778 10.716 438.419 9.40076 436.741 9.40076C435.064 9.40076 433.704 10.716 433.704 12.3385C433.704 13.961 435.064 15.2763 436.741 15.2763Z" fill="white"/>
<path opacity="0.2" d="M425.527 364.723C425.526 358.624 426.768 352.583 429.18 346.948C431.593 341.313 435.13 336.192 439.589 331.879C444.048 327.566 449.342 324.145 455.168 321.811C460.995 319.477 467.239 318.276 473.545 318.277H473.795C473.673 317.99 473.552 317.703 473.431 317.416C473.127 316.712 472.824 316.008 472.507 315.31H425.527V257.088H428.379C428.041 256.794 427.698 256.507 427.354 256.227C425.81 254.955 424.244 253.712 422.655 252.497L422.473 252.36V254.121H363.48V223.494C362.529 223.239 361.572 222.991 360.608 222.757C360.547 222.744 360.487 222.724 360.426 222.711V254.121H330.454V257.088H360.426V315.31H330.454V318.277H360.426V364.723H330.677C330.805 365.718 330.996 366.705 331.25 367.677H360.426V387.174H363.48V367.677H422.473V387.174H425.527V367.677H476.997V364.723H425.527ZM422.473 364.723H363.48V318.277H422.473V364.723ZM422.473 315.31H363.48V314.149C363.48 299.016 369.695 284.502 380.759 273.801C391.822 263.1 406.827 257.088 422.473 257.088V315.31Z" fill="#FFFFFE"/>
<path d="M160.883 151.793L128.141 395.416L127.932 396.967H126.57L126.779 395.416L159.549 151.623L160.883 151.793Z" fill="#B59902"/>
<path d="M92.7153 152.099L56.6088 395.442L56.3796 396.994H55.0178L55.247 395.442L91.3805 151.917L92.7153 152.099Z" fill="#B59902"/>
<path d="M211.794 396.935L210.392 396.942L209.96 395.39L140.113 144.444L141.415 144.105L211.356 395.39L211.794 396.935Z" fill="#E8C503"/>
<path d="M208.836 144.096L207.539 144.451L281.144 395.593L282.441 395.237L208.836 144.096Z" fill="#E8C503"/>
<path d="M268.391 349.517L201.648 362.872L201.921 364.15L268.665 350.794L268.391 349.517Z" fill="#E8C503"/>
<path d="M256.819 310.341L190.076 323.697L190.349 324.974L257.093 311.618L256.819 310.341Z" fill="#E8C503"/>
<path d="M245.256 271.164L178.978 283.571L179.234 284.851L245.512 272.444L245.256 271.164Z" fill="#E8C503"/>
<path d="M233.683 231.996L168.849 244.388L169.11 245.668L233.944 233.275L233.683 231.996Z" fill="#E8C503"/>
<path d="M91.5755 152.054C90.5616 145.648 92.2204 139.114 96.1869 133.891C100.153 128.667 106.103 125.182 112.726 124.201C119.349 123.221 126.104 124.825 131.504 128.662C136.905 132.498 140.508 138.253 141.522 144.659L140.189 144.857C139.716 141.852 138.634 138.968 137.008 136.368C135.381 133.768 133.241 131.504 130.709 129.705C128.178 127.905 125.304 126.606 122.253 125.88C119.202 125.155 116.034 125.019 112.928 125.479C109.823 125.938 106.841 126.986 104.154 128.56C101.467 130.135 99.1271 132.206 97.268 134.656C95.4088 137.105 94.0668 139.885 93.3187 142.837C92.5706 145.788 92.431 148.853 92.908 151.857L91.5755 152.054Z" fill="#E8C503"/>
<path d="M159.097 152.346C158.551 149.18 158.655 145.941 159.403 142.814C160.152 139.687 161.53 136.733 163.458 134.121C165.387 131.509 167.829 129.29 170.644 127.591C173.46 125.892 176.594 124.747 179.867 124.219C183.14 123.692 186.489 123.794 189.722 124.519C192.955 125.243 196.008 126.577 198.708 128.444C201.407 130.31 203.7 132.673 205.456 135.396C207.212 138.12 208.395 141.152 208.939 144.318L207.609 144.532C206.565 138.483 203.079 133.082 197.919 129.518C192.759 125.954 186.346 124.517 180.092 125.525C173.837 126.532 168.252 129.901 164.564 134.891C160.877 139.88 159.389 146.082 160.427 152.132L159.097 152.346Z" fill="#E8C503"/>
<path d="M228.759 205.562L215.803 236.049L258.016 235.753L253.723 205.494L228.759 205.562Z" fill="#FFB6B6"/>
<path d="M239.067 345.516L245.328 346.4L251.83 323.46L242.589 322.157L239.067 345.516Z" fill="#FFB6B6"/>
<path d="M237.965 342.31L247.949 343.135L247.33 347.237L255.792 354.851C256.21 355.227 256.493 355.722 256.599 356.264C256.706 356.807 256.63 357.368 256.383 357.866C256.136 358.364 255.731 358.772 255.228 359.032C254.724 359.291 254.147 359.388 253.583 359.309L241.799 357.646L240.38 353.302L238.975 357.248L234.532 356.621L237.965 342.31Z" fill="#2F2E41"/>
<path d="M166.707 328.574L171.703 332.331L189.061 315.482L181.689 309.938L166.707 328.574Z" fill="#FFB6B6"/>
<path d="M167.385 325.259L175.647 330.742L173.017 334.014L176.492 344.676C176.663 345.202 176.657 345.768 176.472 346.291C176.288 346.813 175.936 347.265 175.467 347.58C174.999 347.896 174.438 348.058 173.867 348.043C173.297 348.028 172.746 347.837 172.295 347.498L162.895 340.427L163.877 335.972L160.642 338.733L157.098 336.067L167.385 325.259Z" fill="#2F2E41"/>
<path d="M218.186 228.815L214.029 234.142L202.963 280.711L177.81 313.57L186.266 321.423L218.347 291.318L234.091 259.152L242.057 288.862L240.034 328.638L253.517 327.986C257.171 281.826 262.887 234.332 256.155 220.993C251.717 224.738 246.536 227.567 240.929 229.308C235.321 231.05 229.406 231.666 223.544 231.12L218.186 228.815Z" fill="#2F2E41"/>
<path d="M240.44 156.26L251.077 167.51C253.411 169.979 254.891 173.091 255.31 176.413C255.5 177.921 255.469 179.447 255.216 180.947L252.923 197.196L256.968 221.974C256.968 221.974 251.203 225.375 240.114 232.407C235.589 235.277 214.471 235.231 214.497 234.363C214.617 230.345 218.333 219.517 219.216 206.325C220.307 190.042 218.877 170.608 222.587 161.333C227.116 150.009 240.44 156.26 240.44 156.26Z" fill="#FFD803"/>
<path d="M203.939 228.352C204.403 227.699 204.714 226.956 204.848 226.174C204.983 225.392 204.939 224.592 204.72 223.828C204.5 223.065 204.11 222.357 203.577 221.755C203.044 221.154 202.382 220.672 201.635 220.345L202.051 207.965L194.335 205.885L194.002 223.376C193.516 224.625 193.521 226.003 194.016 227.248C194.511 228.494 195.46 229.52 196.685 230.134C197.91 230.747 199.325 230.904 200.662 230.576C201.999 230.248 203.165 229.456 203.939 228.352Z" fill="#FFB6B6"/>
<path d="M193.647 178.377C193.874 177.8 194.223 177.275 194.672 176.836C195.12 176.396 195.658 176.051 196.251 175.823C200.358 174.154 218.113 160.12 218.767 160.384L224.404 157.693C224.612 157.695 230.165 157.822 232.889 160.81C233.455 161.44 233.874 162.182 234.115 162.984C234.357 163.786 234.417 164.629 234.29 165.456C233.492 172.571 208.321 188.553 205.654 188.445L202.828 208.647L203.928 216.365L193.634 216.648L190.462 205.284C190.007 204.456 189.432 188.758 193.647 178.377Z" fill="#FFD803"/>
<path d="M234.915 167.586C235.748 162.062 232.541 157.037 227.751 156.361C222.962 155.685 218.404 159.615 217.571 165.138C216.738 170.662 219.945 175.687 224.735 176.363C229.524 177.039 234.082 173.109 234.915 167.586Z" fill="#FFD803"/>
<path d="M157.539 203.699L157.278 202.42L219.89 188.719V190.023L157.539 203.699Z" fill="#E8C503"/>
<path d="M434.722 111.548H410.709C405.529 111.548 401.33 115.61 401.33 120.62V120.62C401.33 125.63 405.529 129.692 410.709 129.692H434.722C439.902 129.692 444.101 125.63 444.101 120.62C444.101 115.61 439.902 111.548 434.722 111.548Z" fill="#FFE556"/>
<path d="M479.273 147.836H366.157C360.977 147.836 356.778 151.898 356.778 156.909V156.909C356.778 161.919 360.977 165.981 366.157 165.981H479.273C484.453 165.981 488.653 161.919 488.653 156.909C488.653 151.898 484.453 147.836 479.273 147.836Z" fill="#FFE556"/>
<path d="M430.736 174.996H317.62C312.44 174.996 308.241 179.058 308.241 184.068V184.068C308.241 189.078 312.44 193.14 317.62 193.14H430.736C435.916 193.14 440.115 189.078 440.115 184.068C440.115 179.058 435.916 174.996 430.736 174.996Z" fill="#FFE556"/>
<path d="M579.841 396.022C579.841 396.124 579.82 396.225 579.78 396.319C579.74 396.414 579.681 396.499 579.606 396.571C579.532 396.643 579.443 396.701 579.346 396.739C579.248 396.778 579.144 396.798 579.038 396.798L179.487 396.935L178.085 396.941L95.6256 396.967H94.2638L24.0732 396.993H22.7115L0.802218 397C0.589457 397 0.385407 396.918 0.234963 396.773C0.0845179 396.627 0 396.43 0 396.224C0 396.018 0.0845179 395.821 0.234963 395.675C0.385407 395.53 0.589457 395.448 0.802218 395.448L22.9407 395.442H24.3024L94.4728 395.416H95.8345L177.654 395.389H179.049L248.768 395.363H249.685L579.039 395.246C579.144 395.246 579.248 395.266 579.346 395.304C579.443 395.343 579.532 395.4 579.606 395.473C579.681 395.545 579.74 395.63 579.78 395.725C579.82 395.819 579.841 395.92 579.841 396.022Z" fill="#B59902"/>
<path d="M251.696 145.025C249.683 147.611 246.821 149.457 243.579 150.259C240.337 151.06 236.909 150.77 233.861 149.436C230.812 148.102 228.324 145.804 226.806 142.919C225.289 140.035 224.832 136.736 225.511 133.567C226.191 130.398 227.965 127.547 230.544 125.484C233.122 123.421 236.35 122.268 239.695 122.216C243.041 122.165 246.305 123.217 248.95 125.199C251.595 127.181 253.463 129.976 254.247 133.122C254.29 133.293 254.325 133.463 254.36 133.639C254.774 135.611 254.751 137.646 254.291 139.609C253.832 141.571 252.947 143.418 251.696 145.025Z" fill="#FFB6B6"/>
<path d="M255.527 133.803C255.156 132.018 255.296 132.941 254.918 131.161C254.996 132.022 254.801 132.887 254.36 133.639L237.009 131.191L238.481 121.435C243.858 120.203 249.078 119.246 251.535 123.277C254.21 123.654 256.621 125.044 258.236 127.141C259.852 129.237 260.54 131.868 260.15 134.456L255.527 133.803Z" fill="#2F2E41"/>
<path d="M245.287 160.055C245.301 159.872 245.309 159.682 245.31 159.498C245.276 158.139 245.094 156.788 244.766 155.467C244.471 154.035 244.171 152.596 243.869 151.163C244.149 153.726 243.556 156.308 242.181 158.516C239.585 155.896 241.301 152.104 237.472 151.563C228.267 150.264 220.776 140.715 222.12 131.805C223.463 122.9 228.416 116.799 237.622 118.098C246.834 119.398 253.69 124.53 252.527 133.459C240.798 134.44 247.565 159.454 245.287 160.055Z" fill="#2F2E41"/>
<path d="M225.033 126.226C228.429 126.226 231.182 123.563 231.182 120.278C231.182 116.994 228.429 114.331 225.033 114.331C221.637 114.331 218.884 116.994 218.884 120.278C218.884 123.563 221.637 126.226 225.033 126.226Z" fill="#2F2E41"/>
<path d="M232.326 115.368C231.753 114.168 230.882 113.123 229.792 112.326C228.701 111.529 227.424 111.004 226.074 110.799C227.025 111.215 227.856 111.851 228.493 112.65C229.13 113.45 229.554 114.389 229.728 115.385C229.901 116.381 229.819 117.402 229.488 118.36C229.157 119.318 228.588 120.182 227.83 120.877L229.074 119.843C229.413 120.122 229.835 120.289 230.279 120.32C230.723 120.351 231.166 120.243 231.542 120.014C231.911 119.773 232.219 119.455 232.443 119.083C232.666 118.711 232.8 118.295 232.834 117.865C232.893 117.004 232.718 116.143 232.326 115.368Z" fill="#2F2E41"/>
<path d="M310.596 178.272C309.865 177.914 309.062 177.715 308.243 177.69C307.424 177.664 306.61 177.813 305.857 178.125C305.104 178.437 304.431 178.905 303.885 179.496C303.339 180.087 302.934 180.786 302.698 181.545L289.957 182.794L288.853 190.468L306.82 188.46C308.164 188.759 309.575 188.571 310.785 187.931C311.995 187.291 312.921 186.244 313.386 184.988C313.852 183.732 313.825 182.355 313.311 181.117C312.796 179.879 311.83 178.867 310.596 178.272Z" fill="#FFB6B6"/>
<path d="M260.757 194.787C260.136 194.646 259.552 194.381 259.042 194.01C258.532 193.639 258.107 193.169 257.794 192.63C255.538 188.916 238.795 173.761 238.978 173.099L235.471 168.053C235.446 167.853 234.837 162.513 237.536 159.505C238.107 158.878 238.812 158.378 239.601 158.039C240.391 157.701 241.247 157.532 242.11 157.543C249.507 157.361 268.103 180.005 268.348 182.577L290.553 181.958L298.315 179.877L299.974 189.708L288.752 194.261C287.964 194.807 271.956 197.447 260.757 194.787Z" fill="#FFD803"/>
</svg>
